# xmcd
#
# Track frame offsets: 
#        150
#        21328
#        37073
#        52668
#
# Disc length: 937 seconds
#
# Revision: 0
# Processed by: cddbd v1.5.2PL0 Copyright (c) Steve Scherf et al.
# Submitted via: ExactAudioCopy v0.99pb3
#
DISCID=2a03a704
DTITLE=Russell Sawyer and the Lost Cause - RS and the Lost Cause
DYEAR=2007
DGENRE=Other
TTITLE0=California
TTITLE1=Runaway
TTITLE2=Drink_It_Up
TTITLE3=Freak_Show
EXTD=
EXTT0=
EXTT1=
EXTT2=
EXTT3=
PLAYORDER=
